<?xml version="1.0" encoding="UTF-8"?>
<svg id="Layer_1" data-name="Layer 1" xmlns="http://www.w3.org/2000/svg" viewBox="0 0 470.8 400">
  <defs>
    <style>
      .cls-1 {
        opacity: .08;
      }

      .cls-1, .cls-2, .cls-3, .cls-4, .cls-5, .cls-6 {
        isolation: isolate;
      }

      .cls-7 {
        fill: #82655e;
      }

      .cls-8 {
        fill: #f2d8cd;
      }

      .cls-9 {
        fill: #d6efff;
      }

      .cls-10, .cls-2, .cls-5 {
        fill: #fff;
      }

      .cls-2 {
        opacity: .73;
      }

      .cls-11 {
        fill: #c2968c;
      }

      .cls-12 {
        fill: #cfc2af;
      }

      .cls-3 {
        opacity: .02;
      }

      .cls-13 {
        fill: #a1b3ba;
      }

      .cls-14 {
        fill: #bababa;
      }

      .cls-15 {
        fill: #467ea2;
      }

      .cls-16 {
        fill: #f8fdff;
      }

      .cls-17 {
        fill: #547a36;
      }

      .cls-18 {
        fill: #d3dee3;
      }

      .cls-19 {
        fill: #d1b0a3;
      }

      .cls-4 {
        opacity: .04;
      }

      .cls-20 {
        fill: #d9efff;
      }

      .cls-21 {
        fill: #876962;
      }

      .cls-22 {
        fill: #868c8f;
      }

      .cls-23 {
        fill: #b89b8f;
      }

      .cls-24 {
        fill: #f3f8fa;
      }

      .cls-25 {
        fill: #bdaf9b;
      }

      .cls-26 {
        fill: #f0c9bb;
      }

      .cls-27 {
        opacity: .05;
      }

      .cls-28 {
        fill: #ebc6b7;
      }

      .cls-29 {
        fill: #93caed;
      }

      .cls-5 {
        opacity: .25;
      }

      .cls-30 {
        fill: #a8d9f9;
      }

      .cls-31 {
        fill: #b8cbd4;
      }

      .cls-32 {
        fill: #7e9dab;
      }

      .cls-33 {
        fill: #9e7b73;
      }

      .cls-34 {
        fill: #35607a;
      }

      .cls-35 {
        fill: #6fa348;
      }

      .cls-36 {
        fill: #4f8fb6;
      }

      .cls-37 {
        fill: #f0f5f7;
      }

      .cls-38 {
        fill: #b88f86;
      }

      .cls-39 {
        fill: #96ccff;
      }

      .cls-40 {
        fill: #5c6266;
      }

      .cls-41 {
        fill: #5eb2ff;
      }

      .cls-6 {
        opacity: .1;
      }

      .cls-42 {
        fill: #396783;
      }

      .cls-43 {
        fill: #d1bbb2;
      }

      .cls-44 {
        fill: #9e9e9e;
      }

      .cls-45 {
        fill: #dae5eb;
      }

      .cls-46 {
        fill: #7fc0eb;
      }

      .cls-47 {
        fill: #fffaf2;
      }

      .cls-48 {
        fill: #b3968b;
      }

      .cls-49 {
        fill: #5e5e5e;
      }

      .cls-50 {
        fill: #e3cbc1;
      }

      .cls-51 {
        fill: #8ec3de;
      }

      .cls-52 {
        fill: #e3e3e3;
      }

      .cls-53 {
        fill: #fcfcfc;
      }
    </style>
  </defs>
  <g>
    <g>
      <polygon class="cls-25" points="470.8 280.5 231.97 400 0 283.92 0 275.53 470.8 272.11 470.8 280.5"/>
      <polygon class="cls-47" points="470.8 272.11 231.97 391.6 0 275.53 238.83 156.03 470.8 272.11"/>
      <polygon class="cls-12" points="0 283.92 0 275.53 231.97 391.6 231.97 400 0 283.92"/>
    </g>
    <g>
      <polygon class="cls-28" points="238.83 156.01 0 275.53 0 119.51 238.83 0 238.83 156.01"/>
      <polygon class="cls-8" points="470.8 272.11 238.83 156.01 238.83 0 470.8 116.09 470.8 272.11"/>
      <g>
        <polygon class="cls-19" points="238.83 164.19 8.11 279.89 8.11 123.87 238.83 8.18 238.83 164.19"/>
        <polygon class="cls-50" points="462.82 276.46 238.83 164.19 238.83 8.18 462.82 120.45 462.82 276.46"/>
      </g>
      <polygon class="cls-43" points="462.82 276.46 470.8 272.11 470.8 116.09 462.82 120.45 462.82 276.46"/>
      <polygon class="cls-23" points="0 119.51 8.11 123.87 8.11 279.89 0 275.53 0 119.51"/>
    </g>
  </g>
  <g>
    <path class="cls-6" d="M37.62,284.62l37.95-8.57,19.75-5.31,12.54,6.15-13.48,4.91,.14,1.86,23.92-8.61,29.05-8.21c1.48-.42,1.71-2.42,.37-3.17l-.03-.02c-.36-.2-.77-.26-1.17-.19l-15.08,2.95c-1.57,.31-3.2-.01-4.54-.89l-15.41-10.11-10.84,1.97-6.87,4.93-12.39-9.25-6.27,20.74,6.5-21.5,12.33-9.71,6.42,4.77-1.82-6.93,9.74-10.86-6.55-3.38-66.8,30.32,2.54,28.11Z"/>
    <g>
      <g>
        <polygon class="cls-31" points="17.26 238.72 40.06 290.11 43.12 288.35 43.12 251.62 17.26 238.72"/>
        <polygon class="cls-31" points="113.35 220.48 40.06 257.06 14.2 244.13 14.2 240.15 87.49 207.55 113.35 216.5 113.35 220.48"/>
        <polygon class="cls-37" points="113.35 216.5 40.06 253.07 14.2 240.15 87.49 203.57 113.35 216.5"/>
        <polygon class="cls-18" points="14.2 240.15 14.2 277.2 40.06 290.11 40.06 253.05 14.2 240.15"/>
      </g>
      <g>
        <g>
          <path class="cls-32" d="M75.77,276.08c-.07,0-.13,0-.2-.02-.44-.11-.71-.56-.6-1l5.87-23.66c.11-.44,.56-.71,1-.6,.44,.11,.71,.56,.6,1l-5.87,23.66c-.09,.37-.43,.63-.8,.63Z"/>
          <path class="cls-32" d="M94.53,283.67c-.45,0-.82-.36-.82-.82l-.29-24.54c0-.46,.36-.83,.82-.83h0c.45,0,.82,.36,.82,.82l.29,24.54c0,.46-.36,.83-.82,.83h0Z"/>
        </g>
        <path class="cls-32" d="M115.17,274.58c-.39,0-.73-.27-.81-.67l-4.69-24.04c-.09-.45,.21-.88,.65-.97,.45-.09,.88,.2,.97,.65l4.69,24.04c.09,.45-.2,.88-.65,.97-.05,.01-.11,.02-.16,.02Z"/>
        <path class="cls-45" d="M114.84,253.15l-19.63,9.81-17.09-8.58c-1-.5-1.4-2.99-.4-3.49l16.38-6.92c.77-.39,1.68-.39,2.46,0l18.28,9.17Z"/>
        <path class="cls-16" d="M116.31,252.51l-19.63,9.81-18.56-9.31c-1-.5-1-1.92,0-2.42l15.98-7.99c.77-.39,1.68-.39,2.46,0l19.75,9.91Z"/>
        <path class="cls-45" d="M115.86,252.05l-20.54,10.27,3.38-21.89c.18-1.23,.95-2.3,2.06-2.85l15.83-7.91c1.24-.62,3.65,.64,3.45,2.01l-4.17,20.36Z"/>
        <path class="cls-31" d="M115.08,253.7l-18.52,9.26,3.38-21.89c.18-1.23,.95-2.3,2.06-2.85l15.83-7.91c1.24-.62,2.67,.41,2.47,1.78l-2.86,18.35c-.2,1.4-1.08,2.62-2.35,3.25Z"/>
        <path class="cls-45" d="M95.21,262.96s.9,.55,1.35,0l.35-2.38-1.26-.46s-.52,1.5-3.26,.06l2.83,2.79Z"/>
      </g>
    </g>
    <polygon class="cls-2" points="30.14 235.44 54.96 245.67 81.07 232.62 56.84 222.51 30.14 235.44"/>
    <polygon class="cls-2" points="60.02 220.49 84.84 230.72 108.86 218.72 84.63 208.62 60.02 220.49"/>
  </g>
  <g>
    <g>
      <polygon class="cls-6" points="145.55 227.95 200.09 224.12 255.45 196.04 209.64 181.08 145.55 227.95"/>
      <g>
        <g>
          <g>
            <g>
              <polygon class="cls-31" points="178.94 211.26 212.33 194.56 212.33 176.28 178.94 192.98 178.94 211.26"/>
              <path class="cls-13" d="M179.77,193.49l31.73-15.86v16.41l-31.73,15.86v-16.41Zm31.49-15.48l-31.25,15.62v15.88l31.25-15.62v-15.88Z"/>
              <polygon class="cls-37" points="178.94 192.98 212.33 176.29 195.1 167.9 161.71 184.59 178.94 192.98"/>
              <polygon class="cls-44" points="161.71 202.87 178.94 211.26 178.94 192.98 161.71 184.59 161.71 202.87"/>
            </g>
            <g>
              <polygon class="cls-10" points="192.74 190.92 197.57 188.49 197.57 186.28 192.74 188.71 192.74 190.92"/>
              <g>
                <polygon class="cls-22" points="196.84 186.94 197.21 186.76 197.21 188.37 193.11 190.44 193.11 190.03 196.84 188.15 196.84 186.94"/>
                <polygon class="cls-40" points="196.84 186.94 196.84 188.15 193.11 190.03 193.11 188.82 196.84 186.94"/>
              </g>
            </g>
          </g>
          <g>
            <g>
              <polygon class="cls-31" points="178.94 192.68 212.33 175.99 212.33 157.71 178.94 174.41 178.94 192.68"/>
              <path class="cls-13" d="M179.77,174.92l31.73-15.86v16.41l-31.73,15.86v-16.41Zm31.49-15.48l-31.25,15.62v15.88l31.25-15.62v-15.88Z"/>
              <polygon class="cls-37" points="178.94 174.41 212.33 157.72 195.1 149.33 161.71 166.02 178.94 174.41"/>
              <polygon class="cls-44" points="161.71 184.29 178.94 192.69 178.94 174.41 161.71 166.02 161.71 184.29"/>
            </g>
            <g>
              <polygon class="cls-10" points="192.74 172.35 197.57 169.91 197.57 167.71 192.74 170.14 192.74 172.35"/>
              <g>
                <polygon class="cls-22" points="196.84 168.37 197.21 168.19 197.21 169.8 193.11 171.87 193.11 171.46 196.84 169.58 196.84 168.37"/>
                <polygon class="cls-40" points="196.84 168.37 196.84 169.58 193.11 171.46 193.11 170.25 196.84 168.37"/>
              </g>
            </g>
          </g>
        </g>
        <g>
          <g>
            <g>
              <polygon class="cls-31" points="145.55 227.95 178.94 211.25 178.94 192.98 145.55 209.67 145.55 227.95"/>
              <path class="cls-13" d="M146.38,210.18l31.73-15.86v16.41l-31.73,15.86v-16.41Zm31.49-15.48l-31.25,15.62v15.88l31.25-15.62v-15.88Z"/>
              <polygon class="cls-37" points="145.55 209.68 178.94 192.99 161.71 184.59 128.32 201.28 145.55 209.68"/>
              <polygon class="cls-18" points="128.32 219.56 145.55 227.95 145.55 209.67 128.32 201.28 128.32 219.56"/>
            </g>
            <g>
              <polygon class="cls-10" points="159.35 207.61 164.18 205.18 164.18 202.97 159.35 205.4 159.35 207.61"/>
              <g>
                <polygon class="cls-22" points="163.45 203.63 163.82 203.45 163.82 205.07 159.72 207.13 159.72 206.72 163.45 204.84 163.45 203.63"/>
                <polygon class="cls-40" points="163.45 203.63 163.45 204.84 159.72 206.72 159.72 205.51 163.45 203.63"/>
              </g>
            </g>
          </g>
          <g>
            <g>
              <polygon class="cls-31" points="145.55 209.38 178.94 192.68 178.94 174.4 145.55 191.1 145.55 209.38"/>
              <path class="cls-13" d="M178.1,175.75v16.41l-31.73,15.86v-16.42l31.73-15.86Zm-.24,.38l-31.25,15.62v15.88l31.25-15.62v-15.88Z"/>
              <polygon class="cls-37" points="145.55 191.1 178.94 174.41 161.71 166.02 128.32 182.71 145.55 191.1"/>
              <polygon class="cls-18" points="128.32 200.99 145.55 209.38 145.55 191.1 128.32 182.71 128.32 200.99"/>
            </g>
            <g>
              <polygon class="cls-10" points="159.35 189.04 164.18 186.61 164.18 184.4 159.35 186.83 159.35 189.04"/>
              <g>
                <polygon class="cls-22" points="163.45 185.06 163.82 184.88 163.82 186.49 159.72 188.56 159.72 188.15 163.45 186.27 163.45 185.06"/>
                <polygon class="cls-40" points="163.45 185.06 163.45 186.27 159.72 188.15 159.72 186.94 163.45 185.06"/>
              </g>
            </g>
          </g>
        </g>
      </g>
    </g>
    <g>
      <g>
        <polygon class="cls-30" points="125.21 164.7 198.33 128.17 198.33 85.26 125.21 121.79 125.21 164.7"/>
        <polygon class="cls-46" points="125.21 121.79 123.05 120.85 123.05 163.76 125.21 164.7 125.21 121.79"/>
        <polygon class="cls-20" points="198.33 85.26 196.17 84.32 123.05 120.85 125.21 121.79 198.33 85.26"/>
      </g>
      <polygon class="cls-6" points="125.21 164.7 141.47 176.14 172.48 177.63 212.33 157.72 195.1 149.33 195.1 129.63 125.21 164.7"/>
      <polygon class="cls-29" points="198.33 85.26 134.75 159.88 198.33 128.17 198.33 85.26"/>
    </g>
  </g>
  <g>
    <polygon class="cls-1" points="310.37 309.52 354.82 312.45 429.99 287.15 445.78 284.62 462.82 276.46 405.47 252.32 310.37 309.52"/>
    <g>
      <g>
        <g>
          <polygon class="cls-18" points="405.73 264.42 334.48 228.97 334.48 211.95 405.73 247.4 405.73 264.42"/>
          <polygon class="cls-37" points="405.73 247.4 334.48 211.96 350.52 204.14 421.77 239.59 405.73 247.4"/>
          <polygon class="cls-14" points="421.77 256.61 405.73 264.42 405.73 247.4 421.77 239.59 421.77 256.61"/>
        </g>
        <g>
          <g>
            <polygon class="cls-18" points="436.57 279.85 405.47 264.3 405.47 247.28 436.57 262.82 436.57 279.85"/>
            <path class="cls-13" d="M435.79,278.59l-29.54-14.77v-15.29l29.54,14.77v15.29Zm-29.32-14.91l29.1,14.55v-14.79l-29.1-14.55v14.79Z"/>
            <polygon class="cls-37" points="436.57 262.83 405.47 247.29 421.51 239.47 452.61 255.01 436.57 262.83"/>
            <polygon class="cls-13" points="452.61 272.03 436.57 279.85 436.57 262.83 452.61 255.01 452.61 272.03"/>
          </g>
          <g>
            <polygon class="cls-10" points="423.71 260.9 419.21 258.64 419.21 256.59 423.71 258.85 423.71 260.9"/>
            <g>
              <polygon class="cls-22" points="419.89 257.2 419.55 257.03 419.55 258.54 423.37 260.46 423.37 260.08 419.89 258.33 419.89 257.2"/>
              <polygon class="cls-40" points="419.89 257.2 419.89 258.33 423.37 260.08 423.37 258.95 419.89 257.2"/>
            </g>
          </g>
        </g>
        <polygon class="cls-1" points="403.01 246.05 420.46 266.64 436.57 276.46 436.57 279.85 403.03 263.17 403.03 254.53 351.79 227.65 365.43 227.65 403.01 246.05"/>
        <g>
          <g>
            <g>
              <polygon class="cls-18" points="310.39 309.51 247.43 278.03 247.43 269.38 310.39 300.87 310.39 309.51"/>
              <polygon class="cls-24" points="310.39 300.86 247.43 269.38 340.05 223.07 403.01 254.55 310.39 300.86"/>
              <polygon class="cls-13" points="403.03 263.17 310.37 309.52 310.37 300.87 403.03 254.53 403.03 263.17"/>
            </g>
            <path class="cls-4" d="M256.52,268.56s-2.58,1.72,0,2.87,50.37,27.01,53.85,27.36,8.11-1.97,8.11-1.97l84.56-42.29-5.1-2.52-141.41,16.55Z"/>
            <g>
              <g>
                <g>
                  <path class="cls-18" d="M256.37,258.95c-2.08,1.1-2.08,4.36-1.86,6.35,.66,5.8,8.31,7.83,12.9,10.13,6.15,3.08,12.3,6.15,18.45,9.22,7.48,3.74,14.97,7.48,22.45,11.23v-59l-51.95,22.06Z"/>
                  <path class="cls-53" d="M308.32,236.88v59l.68,.34c1.58,.79,3.44,.79,5.02,0l1.09-.55v-61.68l-6.8,2.89Z"/>
                  <path class="cls-18" d="M396.7,244.08l-52.72-20.22c-1.58-.79-3.44-.79-5.02,0l-23.85,10.13v61.68c5.22-2.61,10.44-5.22,15.66-7.83,10.84-5.42,21.69-10.84,32.53-16.26,9.27-4.63,18.53-9.27,27.8-13.9,2.45-1.22,5.69-2.09,6.8-4.88,.8-2.03,1.39-7.65-1.21-8.71Z"/>
                </g>
                <path class="cls-10" d="M309,290.02l-52.58-26.29c-1.98-.99-1.98-3.81,0-4.8l82.54-41.27c1.58-.79,3.44-.79,5.02,0l52.58,26.29c1.98,.99,1.98,3.81,0,4.8l-82.54,41.27c-1.58,.79-3.44,.79-5.02,0Z"/>
              </g>
              <path class="cls-51" d="M391.64,253c-.01-2.79-4.09-4.55-4.44-4.7l-51.3-25.86h0s-2.37-1.34-3.53-1.83c-.29-.12-.61-.11-.89,.03l-71.9,35.95c-.16,.08-.29,.22-.34,.4-.05,.15-.07,.33,0,.53,0,0,.79-.29,1.8,.05l53.9,27.13h-.02c3.62,1.71,3.21,5.07,3.21,5.07,0,0-.47,1.69,.3,1.55s72.55-36.16,72.55-36.16c0,0,.71-.52,.66-2.18h-.02Z"/>
            </g>
          </g>
          <g>
            <path class="cls-1" d="M330.22,225.38s.95,2.48,5.02,4.53c4.07,2.06,15.4,7.7,17.89,7.27,2.49-.43,14.05-5.28,14.25-6.5,.2-1.22-1.1-1.91-1.1-1.91l-36.05-3.39Z"/>
            <g>
              <path class="cls-10" d="M330.22,225.38c-1.21-1.01-.98-2.94,.44-3.63,2.53-1.25,7.3-4.73,14.03-4.98,9.35-.35,21.86,8.73,22.86,11.6,.81,2.34-12.11,8.43-16.07,7.5-3.13-.74-16.56-6.59-21.25-10.49Z"/>
              <path class="cls-3" d="M330.23,222.93c.05-.02,1.09,1.44,1.23,1.57,.56,.51,1.29,.85,1.95,1.2,1.05,.54,2.11,1.07,3.16,1.6,2.82,1.41,5.64,2.8,8.5,4.14,1.22,.58,2.45,1.14,3.69,1.68,.72,.31,1.46,.68,2.23,.85,.05,.01,.11,.02,.17,.03,1.67,.18,5.93-.35,7.08-.88,1.32-.6,2.6-1.31,3.86-2.02,.82-.46,1.64-.93,2.44-1.43,.61-.38,1.87-.98,1.99-1.75,.03-.21,.12-.36,.26-.12,.62,1.04-.23,1.94-1.05,2.59-2.32,1.84-5.24,2.86-7.99,3.87-2.69,.98-5.85,1.82-8.56,.43-2.99-1.53-6.11-2.81-9.16-4.21-3.48-1.6-7.18-2.99-9.84-5.88-.15-.16-.3-.34-.39-.54-.16-.38,.02-.95,.42-1.13Z"/>
            </g>
          </g>
          <g>
            <path class="cls-1" d="M357,238.93s.95,2.48,5.02,4.53,15.4,7.7,17.89,7.27c2.49-.43,14.05-5.28,14.25-6.5,.2-1.22-1.1-1.91-1.1-1.91l-36.05-3.39Z"/>
            <g>
              <path class="cls-10" d="M357,238.93c-1.21-1.01-.98-2.94,.44-3.63,2.53-1.25,7.3-4.73,14.03-4.98,9.35-.35,21.86,8.73,22.86,11.6,.81,2.34-12.11,8.43-16.07,7.5-3.13-.74-16.56-6.58-21.25-10.49Z"/>
              <path class="cls-3" d="M357.01,236.48c.05-.02,1.09,1.44,1.23,1.57,.56,.51,1.29,.85,1.95,1.2,1.05,.54,2.11,1.08,3.16,1.6,2.82,1.41,5.64,2.8,8.5,4.14,1.22,.58,2.45,1.14,3.69,1.68,.72,.31,1.46,.68,2.23,.85,.05,.01,.11,.02,.17,.03,1.67,.18,5.93-.35,7.08-.88,1.32-.6,2.6-1.31,3.86-2.02,.82-.46,1.64-.92,2.44-1.42,.61-.38,1.87-.98,1.99-1.75,.03-.21,.12-.36,.26-.12,.62,1.04-.23,1.94-1.05,2.59-2.32,1.84-5.24,2.86-7.99,3.87-2.69,.98-5.85,1.82-8.56,.43-2.99-1.53-6.11-2.81-9.16-4.21-3.48-1.6-7.18-2.99-9.84-5.88-.15-.16-.3-.33-.39-.54-.16-.38,.02-.95,.42-1.13Z"/>
            </g>
          </g>
        </g>
        <path class="cls-1" d="M260.92,256.27s-1.05,.29-1.27,.45c-.21,.17-.38,.65-.21,.62,.17-.02,.98-.31,1.36-.21s19.49,9.54,19.49,9.54l19.99,10.02,16.24,8.06s2.44,1.53,2.34,4.97c0,0-.57,.93-.43,1.1,.14,.17,.53,.08,.93-.21l70.4-35.54s1.72-1.05,.38-3.92c0,0-64.71,34.72-69.35,34.34-1.72-.14-59.88-29.22-59.88-29.22Z"/>
      </g>
      <g>
        <path class="cls-1" d="M445.72,222.66c-4.25,1.93-3.44,4.13-3.06,4.8-1.18,1.26-2.2,2.54-3.06,3.73-.36-.17-.76-.3-1.16-.41,.38-1.94,.77-4.05,1.06-5.86,.3-.27,.59-.55,.86-.81,.98,.17,2.11,.15,2.49-.8,.39-.95-.25-2.28-1.15-2.65-1.46-.59-3.6-.46-5.06,.07-1.44,.52-1.96,2.23-.63,3.04,.62,.37,1.38,.42,2.02,.37-.07,.98-.21,2.13-.47,2.5,0,0,.56-.48,1.26-1.1-.27,1.63-.61,3.44-.94,5.12-.59-.11-1.18-.16-1.75-.13-.61-2.03-1.24-3.58-1.75-4.68,.89-.61,1.09-2.22-1.61-4,0,0-2.36-1.4-5.24-.7s-4.34,1.74-5.51,1.12c0,0,2.68,2.8,4.46,3.03s3.09-.79,3.9-.29c.75,.47,2.36,1.3,3.47,1.07,.5,1.07,1.11,2.56,1.7,4.52-.25,.04-.49,.09-.71,.16-.39,.12-.7,.29-.95,.48h-.01s-.06,.05-.09,.07c-.02,.02-.04,.04-.06,.06-3.03,2.59-3.98,8.37-4.23,12.91-2.37,1.62-3.89,3-3.89,3h0c-.29,.27-.36,.63-.14,1.06,.48,.96,2.21,1.92,4.1,2.36,.32,.07,.64,.14,.97,.18,.85,.11,1.58,.07,2.12-.07h0s3.31-.9,6.93-2.29c1.06-2.54,2.27-6.02,2.68-9.3,.29-2.3,.18-4.5-.66-6.22-.01-.02-.02-.05-.04-.08-.02-.04-.03-.07-.05-.11h-.02c-.15-.27-.37-.55-.68-.82-.22-.19-.47-.35-.73-.51,.84-1.17,1.84-2.41,2.99-3.63,7.81,4.28,10.14-9.23,10.14-9.23-.19,1.16-2.42,1.75-7.5,4.06Z"/>
        <g>
          <g>
            <g>
              <path class="cls-10" d="M433.4,231.33l-3.9,1.12-3.9-1.12c-4.54,5.47-.35,19.8-.35,19.8h0c.15,.5,.55,.98,1.19,1.36,1.69,1.02,4.42,1.02,6.11,0,.64-.39,1.04-.86,1.19-1.36h0s4.19-14.33-.35-19.8Z"/>
              <path class="cls-52" d="M432.55,230.67c1.69,.93,1.69,2.45,0,3.38s-4.42,.93-6.11,0-1.69-2.45,0-3.38c1.69-.93,4.42-.93,6.11,0Z"/>
              <path class="cls-49" d="M432.12,230.91c1.45,.8,1.45,2.1,0,2.91s-3.8,.8-5.25,0-1.45-2.1,0-2.91c1.45-.8,3.8-.8,5.25,0Z"/>
            </g>
            <g class="cls-27">
              <path d="M433.75,233.43c1.99,6.16-1.64,15.1-1.64,15.1h0c-.14,.47-.52,.92-1.12,1.29-1.59,.96-3.61,1.61-5.21,.65-.15-.09-.29-.19-.41-.29,.1,.39,.17,.61,.17,.61h0c.15,.47,.52,.92,1.12,1.29,1.59,.96,4.18,.96,5.77,0,.61-.36,.98-.82,1.12-1.29h0s3.48-11.98,.19-17.36Z"/>
            </g>
          </g>
          <g>
            <path class="cls-17" d="M428,222.08s.61,3.28,.28,4.03c0,0,3.24-4.17,3.05-4.55-.19-.38-3.33,.52-3.33,.52Z"/>
            <path class="cls-35" d="M433.61,226.07s-2.65-2.21,1.85-5.5,6.57-4.32,6.53-5.49c0,0,.47,14.06-8.38,11Z"/>
            <path class="cls-35" d="M422.62,222.38s-2.6-.89-5.27,.37c-2.68,1.27-3.9,2.58-5.17,2.21,0,0,3.19,2.2,4.98,2.06,1.78-.14,2.86-1.4,3.76-1.07,.89,.33,2.86,.89,3.85,.24,.98-.66,1.15-2.49-2.15-3.8Z"/>
            <path class="cls-35" d="M429.49,223.05s-1.85,1.08-3.31,.57c-1.46-.52-1.31-2.3,0-3.1,1.33-.81,3.39-1.38,4.94-1.09,.96,.18,1.85,1.35,1.67,2.36-.25,1.39-2.25,1.34-3.3,1.26Z"/>
            <g>
              <path class="cls-35" d="M429.98,230.29c-.03-3.31-.12-7.2-.39-9.24l-.56,.07c.26,2.01,.35,5.87,.38,9.16,.01,1.31,.01,2.53,.01,3.51,.07,.15,.14,.31,.2,.47,.11-.33,.23-.69,.36-1.08,0-.85,0-1.84-.01-2.89Z"/>
              <path class="cls-35" d="M437.47,220.7c-3.02,3.02-5.08,6.7-6.4,9.74-.44,1-.8,1.93-1.08,2.75-.14,.39-.26,.75-.36,1.08,.02,.04,.04,.09,.05,.13,.1,0,.2,0,.3-.01,.07,0,.13,0,.2-.01,.33-1.01,.8-2.32,1.44-3.79,1.3-2.96,3.31-6.54,6.25-9.48l-.4-.4Z"/>
              <path class="cls-35" d="M429.42,233.79c-.55-1.24-1.09-2.35-1.61-3.33-2.32-4.34-4.25-6.23-4.36-6.34l-.39,.41s1.92,1.88,4.19,6.08c.59,1.09,1.2,2.34,1.82,3.76,.12,0,.24,.01,.36,.01h.16s.03-.09,.04-.13c-.07-.16-.14-.31-.2-.47Z"/>
              <path class="cls-52" d="M429.58,234.38s.06,0,.1,0c-.02-.04-.04-.09-.05-.13-.02,.04-.03,.09-.04,.13Z"/>
            </g>
          </g>
        </g>
      </g>
    </g>
  </g>
  <g>
    <polygon class="cls-1" points="209.64 374.39 241.55 371.33 260.92 362.72 230.79 345.96 209.64 374.39"/>
    <path class="cls-1" d="M240.08,377.27l6.36-1.39-3.17-1.41s-.43-1.29,.69-1.58c0,0,50.42-12.51,50.42-12.51l-28.02,14.02-11.31,5.66-5.43-2.76-7.59,1.66c.68,.71-2.86-2.34-1.95-1.68Z"/>
    <g>
      <g>
        <g>
          <path class="cls-42" d="M140.59,323.83c2.05,1.03,2.05,2.69,0,3.71-2.05,1.02-5.38,1.02-7.43,0-2.05-1.03-2.05-2.69,0-3.71,2.05-1.02,5.38-1.02,7.43,0Z"/>
          <polygon class="cls-42" points="136.88 324.18 131.63 324.18 131.63 325.68 142.13 325.68 142.13 324.18 136.88 324.18"/>
          <path class="cls-36" d="M140.59,322.32c2.05,1.03,2.05,2.69,0,3.71s-5.38,1.03-7.43,0-2.05-2.69,0-3.71c2.05-1.02,5.38-1.02,7.43,0Z"/>
        </g>
        <g>
          <path class="cls-42" d="M137.69,323.95c.45,.23,.45,.59,0,.82s-1.18,.23-1.63,0-.45-.59,0-.82c.45-.23,1.18-.23,1.63,0Z"/>
          <polygon class="cls-42" points="136.88 307.76 135.73 307.76 135.73 324.36 138.03 324.36 138.03 307.76 136.88 307.76"/>
          <path class="cls-10" d="M137.69,307.36c.45,.23,.45,.59,0,.82s-1.18,.23-1.63,0-.45-.59,0-.82c.45-.23,1.18-.23,1.63,0Z"/>
        </g>
        <g>
          <path class="cls-15" d="M141.89,315.08h0v-55.61l-3.72,.35-.47,52.5c-3.2-.64-5.43,.69-5.43,.69l8.06,3.91s1.51-.78,1.56-1.84Z"/>
          <polygon class="cls-34" points="140.33 316.92 132.27 313 132.27 257.39 140.33 261.3 140.33 316.92"/>
          <path class="cls-36" d="M132.27,257.39s3.26-1.96,7.57,0c4.31,1.96,.49,3.91,.49,3.91l-8.06-3.91Z"/>
        </g>
      </g>
      <g>
        <polygon class="cls-18" points="209.64 374.39 136.88 338.42 136.88 317.53 209.64 353.5 209.64 374.39"/>
        <polygon class="cls-37" points="209.64 353.51 136.88 317.54 163.02 304.6 235.78 340.57 209.64 353.51"/>
        <polygon class="cls-13" points="235.78 361.45 209.64 374.39 209.64 353.51 235.78 340.57 235.78 361.45"/>
      </g>
      <g>
        <g>
          <path class="cls-42" d="M242.46,377.37c2.05,1.03,2.05,2.69,0,3.71s-5.38,1.03-7.43,0c-2.05-1.02-2.05-2.69,0-3.71,2.05-1.03,5.38-1.03,7.43,0Z"/>
          <polygon class="cls-42" points="238.75 377.73 233.5 377.73 233.5 379.23 244 379.23 244 377.73 238.75 377.73"/>
          <path class="cls-36" d="M242.46,375.87c2.05,1.03,2.05,2.69,0,3.71-2.05,1.02-5.38,1.02-7.43,0-2.05-1.03-2.05-2.69,0-3.71,2.05-1.03,5.38-1.03,7.43,0Z"/>
        </g>
        <g>
          <path class="cls-42" d="M239.56,377.49c.45,.23,.45,.59,0,.82s-1.18,.23-1.63,0-.45-.59,0-.82c.45-.23,1.18-.23,1.63,0Z"/>
          <polygon class="cls-42" points="238.75 361.31 237.6 361.31 237.6 377.9 239.9 377.9 239.9 361.31 238.75 361.31"/>
          <path class="cls-10" d="M239.56,360.9c.45,.23,.45,.59,0,.82s-1.18,.23-1.63,0-.45-.59,0-.82c.45-.22,1.18-.22,1.63,0Z"/>
        </g>
        <g>
          <path class="cls-15" d="M243.76,368.62h0v-55.61l-3.72,.35-.47,52.5c-3.2-.64-5.43,.69-5.43,.69l8.06,3.91s1.52-.78,1.56-1.84Z"/>
          <polygon class="cls-34" points="242.2 370.46 234.14 366.55 234.14 310.93 242.2 314.85 242.2 370.46"/>
          <path class="cls-36" d="M234.14,310.93s3.26-1.96,7.57,0c4.31,1.96,.49,3.91,.49,3.91l-8.06-3.91Z"/>
        </g>
      </g>
      <polygon class="cls-1" points="194.74 339.74 205.4 340.57 212.14 337.76 231.97 342.45 235.78 340.57 163.02 304.6 185.31 319.68 178.87 323.92 194.74 339.74"/>
      <g>
        <g>
          <polygon class="cls-34" points="194.74 339.74 172.08 328.62 172.08 327.24 194.74 338.36 194.74 339.74"/>
          <polygon class="cls-36" points="194.74 338.36 172.08 327.25 178.87 323.92 201.53 335.03 194.74 338.36"/>
          <polygon class="cls-15" points="201.53 336.41 194.74 339.74 194.74 338.36 201.53 335.03 201.53 336.41"/>
        </g>
        <g>
          <polygon class="cls-15" points="191.26 333.24 190.01 334.02 182.35 311.4 183.6 310.77 191.26 314.61 191.26 333.24"/>
          <polygon class="cls-34" points="190.01 334.02 182.35 330.19 182.35 311.4 190.01 315.23 190.01 334.02"/>
        </g>
        <g>
          <polygon class="cls-36" points="222.71 338.25 220.26 339.74 155.8 304.78 153.35 266.29 155.8 264.8 222.71 298.26 222.71 338.25"/>
          <polygon class="cls-34" points="220.26 339.74 153.35 306.28 153.35 266.29 220.26 299.76 220.26 339.74"/>
          <polygon class="cls-15" points="220.26 299.76 222.71 298.26 222.71 338.25 220.26 339.74 220.26 299.76"/>
        </g>
      </g>
    </g>
    <polygon class="cls-1" points="144.16 313.94 170.32 314.85 156.48 307.84 144.16 313.94"/>
  </g>
  <g>
    <g>
      <polygon class="cls-38" points="417.83 194.46 355.32 163.19 355.32 128.32 417.83 159.59 417.83 194.46"/>
      <g>
        <polygon class="cls-21" points="358.41 131.93 357.38 131.42 357.38 162.16 415.77 191.36 415.77 190.29 358.41 161.61 358.41 131.93"/>
        <polygon class="cls-39" points="358.41 131.93 358.41 161.61 415.77 190.29 415.77 160.62 358.41 131.93"/>
      </g>
      <polygon class="cls-21" points="417.83 159.59 419.89 158.69 419.89 193.56 417.83 194.46 417.83 159.59"/>
      <polygon class="cls-11" points="355.32 128.32 357.38 127.43 419.89 158.69 417.83 159.59 355.32 128.32"/>
    </g>
    <path class="cls-41" d="M358.41,161.61s11.92-4.46,28.16-1.96c16.24,2.5,29.19,.97,29.19,.97v29.68l-57.36-28.68Z"/>
    <polygon class="cls-1" points="355.32 163.19 366.15 170 420.53 197 421.02 163.88 419.89 158.69 417.83 159.59 417.83 194.46 355.32 163.19"/>
  </g>
  <g>
    <g>
      <polygon class="cls-38" points="330.96 210.1 261.5 175.75 261.5 54.59 330.96 88.94 330.96 210.1"/>
      <g>
        <polygon class="cls-7" points="267.01 60.1 264.26 58.72 264.26 174.38 286.46 185.1 286.46 182.54 267.01 173.19 267.01 60.1"/>
        <polygon class="cls-33" points="267.01 60.1 267.01 173.19 286.46 182.54 286.46 69.44 267.01 60.1"/>
      </g>
      <g>
        <polygon class="cls-7" points="292.06 72.24 289.31 70.86 289.31 186.52 328.21 205.98 328.21 203.42 292.06 185.34 292.06 72.24"/>
        <polygon class="cls-30" points="292.06 72.24 292.06 185.34 328.21 203.42 328.21 90.32 292.06 72.24"/>
      </g>
      <polygon class="cls-19" points="261.5 54.59 247.91 47.99 247.91 168.74 261.5 175.75 261.5 54.59"/>
      <polygon class="cls-48" points="254.71 51.29 254.71 164.7 247.91 168.74 247.91 47.99 254.71 51.29"/>
      <polygon class="cls-47" points="254.71 164.7 247.91 168.74 240.33 173.12 256.33 179.94 261.5 175.75 261.5 151.24 254.71 154.9 254.71 164.7"/>
    </g>
    <polygon class="cls-6" points="247.91 69.42 250.92 166.95 261.5 168.74 261.5 54.59 247.91 47.99 247.91 69.42"/>
    <polygon class="cls-29" points="299.07 75.75 328.21 203.42 292.06 185.34 292.06 72.24 299.07 75.75"/>
    <polygon class="cls-6" points="267.01 60.1 286.46 182.54 267.01 173.19 267.01 60.1"/>
  </g>
  <g>
    <polygon class="cls-26" points="25.71 220.45 19.9 217.6 86.9 184.03 92.38 186.82 25.71 220.45"/>
    <polygon class="cls-23" points="92.38 186.82 92.38 124.17 86.9 122.62 86.9 184.03 92.38 186.82"/>
    <g>
      <g>
        <g>
          <polygon class="cls-38" points="19.9 217.7 86.9 184.03 86.9 122.62 19.9 156.29 19.9 217.7"/>
          <g>
            <polygon class="cls-21" points="83.17 126.34 85.03 125.41 85.03 183.1 54.99 198.21 54.99 196.48 83.17 182.3 83.17 126.34"/>
            <polygon class="cls-9" points="83.17 126.34 83.17 182.3 54.99 196.48 54.99 140.53 83.17 126.34"/>
          </g>
          <g>
            <polygon class="cls-21" points="51.2 142.42 53.06 141.49 53.06 199.18 21.76 214.9 21.76 213.17 51.2 198.38 51.2 142.42"/>
            <polygon class="cls-9" points="51.2 142.42 51.2 198.38 21.76 213.17 21.76 157.22 51.2 142.42"/>
          </g>
        </g>
        <polygon class="cls-6" points="51.2 142.42 53.06 147.43 53.06 141.49 51.2 142.42"/>
        <polygon class="cls-6" points="83.17 126.34 85.03 132.32 85.03 125.41 83.17 126.34"/>
        <polygon class="cls-6" points="54.99 196.48 58.56 196.41 54.99 198.21 54.99 196.48"/>
        <polygon class="cls-6" points="21.76 214.9 21.76 213.17 26.56 212.5 21.76 214.9"/>
        <polygon class="cls-5" points="46.23 144.92 21.76 200.16 21.76 157.22 46.23 144.92"/>
        <polygon class="cls-5" points="79.46 128.25 54.99 183.49 54.99 140.55 79.46 128.25"/>
      </g>
      <polygon class="cls-19" points="25.71 220.45 25.71 149.33 11.73 161.41 17.26 218.67 25.71 220.45"/>
      <polygon class="cls-19" points="92.38 124.17 20.73 160.67 24.16 149.33 82.46 119.51 92.38 124.17"/>
    </g>
  </g>
</svg>